<?xml version="1.0" standalone="no"?>
<!DOCTYPE svg PUBLIC "-//W3C//DTD SVG 20010904//EN"
 "http://www.w3.org/TR/2001/REC-SVG-20010904/DTD/svg10.dtd">
<svg version="1.0" xmlns="http://www.w3.org/2000/svg"
 width="192.000000pt" height="192.000000pt" viewBox="0 0 192.000000 192.000000"
 preserveAspectRatio="xMidYMid meet">
<metadata>
Created by potrace 1.14, written by Peter Selinger 2001-2017
</metadata>
<g transform="translate(0.000000,192.000000) scale(0.100000,-0.100000)"
fill="#000000" stroke="none">
<path d="M848 1915 c-2 -2 -26 -7 -53 -11 -70 -9 -265 -80 -265 -96 0 -5 -5
-8 -11 -8 -39 0 -213 -150 -286 -245 -66 -86 -147 -263 -159 -347 -2 -16 -7
-43 -10 -60 -8 -51 -10 -178 -2 -231 12 -80 57 -193 118 -296 38 -63 146 -197
214 -266 77 -76 226 -198 286 -233 25 -14 47 -29 50 -33 3 -3 41 -23 85 -44
142 -67 230 -51 425 78 323 214 565 521 616 782 10 54 12 171 3 220 -4 22 -10
56 -13 75 -28 181 -164 398 -333 532 -26 20 -132 88 -138 88 -2 0 -28 11 -57
24 -50 22 -132 49 -188 62 -30 6 -276 14 -282 9z"/>
</g>
</svg>
